<svg width="783" height="82" viewBox="0 0 783 82" fill="none" xmlns="http://www.w3.org/2000/svg">
<path d="M26 55.6706H79.2997C84.0917 55.6706 88.8755 56.0666 93.6024 56.8544L129.134 62.7763C138.645 64.3615 148.354 64.3545 157.863 62.7557L182 58.6972C193.871 56.7012 206.027 57.1904 217.699 60.1338L234.392 64.3434C249.519 68.158 265.393 67.835 280.352 63.4084L294.416 59.2466C302.43 56.875 310.744 55.6706 319.102 55.6706H354.81C361.58 55.6706 368.327 56.4608 374.914 58.0252L388.188 61.1779C399.206 63.7947 410.716 63.4999 421.585 60.3227C432.029 57.2698 443.071 56.8763 453.706 59.1778L491.955 67.4556C500.273 69.2559 508.811 69.8258 517.295 69.1471L552.914 66.2975C562.244 65.5512 571.392 63.3042 580.005 59.6434L581.681 58.9313C598.158 51.9284 616.395 50.1796 633.903 53.9234L667.783 61.1682C680.113 63.805 692.87 63.7298 705.169 60.9479L719.023 57.8143C725.321 56.3896 731.759 55.6706 738.217 55.6706H767M6 55.6706H59.2997C64.0917 55.6706 68.8755 56.0666 73.6024 56.8544L109.134 62.7763C118.645 64.3615 128.354 64.3545 137.863 62.7557L162 58.6972C173.871 56.7012 186.027 57.1904 197.699 60.1338L214.392 64.3434C229.519 68.158 245.393 67.835 260.352 63.4084L274.416 59.2466C282.43 56.875 290.744 55.6706 299.102 55.6706H334.81C341.58 55.6706 348.327 56.4608 354.914 58.0252L368.188 61.1779C379.206 63.7947 390.716 63.4999 401.585 60.3227C412.029 57.2698 423.071 56.8763 433.706 59.1778L471.955 67.4556C480.273 69.2559 488.811 69.8258 497.295 69.1471L532.914 66.2975C542.244 65.5512 551.392 63.3042 560.005 59.6434L561.681 58.9313C578.158 51.9284 596.395 50.1796 613.903 53.9234L647.783 61.1682C660.113 63.805 672.87 63.7298 685.169 60.9479L699.023 57.8143C705.321 56.3896 711.759 55.6706 718.217 55.6706H747M36 55.6706H89.2997C94.0917 55.6706 98.8755 56.0666 103.602 56.8544L139.134 62.7763C148.645 64.3615 158.354 64.3545 167.863 62.7557L192 58.6972C203.871 56.7012 216.027 57.1904 227.699 60.1338L244.392 64.3434C259.519 68.158 275.393 67.835 290.352 63.4084L304.416 59.2466C312.43 56.875 320.744 55.6706 329.102 55.6706H364.81C371.58 55.6706 378.327 56.4608 384.914 58.0252L398.188 61.1779C409.206 63.7947 420.716 63.4999 431.585 60.3227C442.029 57.2698 453.071 56.8763 463.706 59.1778L501.955 67.4556C510.273 69.2559 518.811 69.8258 527.295 69.1471L562.914 66.2975C572.244 65.5512 581.392 63.3042 590.005 59.6434L591.681 58.9313C608.158 51.9284 626.395 50.1796 643.903 53.9234L677.783 61.1682C690.113 63.805 702.87 63.7298 715.169 60.9479L729.023 57.8143C735.321 56.3896 741.759 55.6706 748.217 55.6706H777" stroke="#2D5139" stroke-width="12" stroke-linecap="round"/>
<path fill-rule="evenodd" clip-rule="evenodd" d="M349.263 62.8713C329.894 54.5767 338.96 30.1137 350.467 18.7881C350.692 18.566 367.242 6.76356 369.054 9.23599C371.766 12.9363 367.827 18.3583 366.598 22.7783C364.176 31.4883 370.69 44.6366 367.198 52.7517C366.598 54.1475 365.958 58.2346 360.083 61.0922C357.756 62.224 349.263 62.8713 349.263 62.8713Z" fill="#3F7034"/>
<path fill-rule="evenodd" clip-rule="evenodd" d="M383.398 21.5177C388.213 13.9667 395.507 12.834 395.507 12.834C395.507 12.834 396.945 25.0965 396.683 34.0937C396.128 53.1367 374.746 73.7388 372.024 51.981C371.943 51.3314 375.091 46.1729 375.609 42.7178C376.395 37.4769 374.919 32.874 376.896 27.9383C378.924 22.8731 382.678 22.6475 383.398 21.5177Z" fill="#3F7034"/>
<path fill-rule="evenodd" clip-rule="evenodd" d="M292.694 15.8059C297.523 34.0045 302.425 43.141 322.723 43.8967C325.799 44.0112 330.799 45.3437 331.79 42.4639C333.02 38.8884 331.967 34.6951 329.717 30.6732C325.7 23.4922 317.867 16.8573 312.399 15.2593C305.434 13.2239 303.052 14.6618 295.89 15.9858L292.694 15.8059Z" fill="#3F7034"/>
<path fill-rule="evenodd" clip-rule="evenodd" d="M338.756 56.7851C332.877 52.654 332.963 50.8613 327.512 50.7137C325.159 50.65 322.763 50.4098 320.452 50.8584C278.866 58.9324 338.316 77.9701 337.271 57.3725L338.756 56.7851Z" fill="#3F7034"/>
<path fill-rule="evenodd" clip-rule="evenodd" d="M361.109 74.1024C359.776 71.9751 359.057 69.3045 357.109 67.7205C339.341 53.2707 351.738 93.7022 360.441 74.2399L361.109 74.1024Z" fill="#3F7034"/>
<path fill-rule="evenodd" clip-rule="evenodd" d="M123.269 53.6024C121.936 51.4751 121.217 48.8045 119.269 47.2205C101.501 32.7707 113.898 73.2022 122.601 53.7399L123.269 53.6024Z" fill="#3F7034"/>
<path fill-rule="evenodd" clip-rule="evenodd" d="M338.718 75.4607C329.908 69.5509 335.707 90.4743 339.497 75.3564Z" fill="#3F7034"/>
<path fill-rule="evenodd" clip-rule="evenodd" d="M11.6941 17.8059C16.5225 36.0045 21.4248 45.141 41.7228 45.8967C44.799 46.0112 49.7995 47.3437 50.79 44.4639C52.0198 40.8884 50.9668 36.6951 48.7168 32.6732C44.6996 25.4922 36.8669 18.8573 31.3987 17.2593C24.4338 15.2239 22.0525 16.6618 14.8898 17.9858L11.6941 17.8059Z" fill="#48823A"/>
<path fill-rule="evenodd" clip-rule="evenodd" d="M81.0127 8.54879C64.5928 17.9752 56.9942 25.1148 61.543 45.0272C62.2324 48.045 62.2397 53.2488 65.2947 53.4614C75.8598 54.1966 86.4708 36.4809 86.6721 27.546C86.8364 20.2511 84.82 18.3123 81.6698 11.6997" fill="#48823A"/>
<path fill-rule="evenodd" clip-rule="evenodd" d="M97.512 55.7542C95.8432 54.3139 94.396 52.5673 92.5056 51.4333C91.6949 50.947 90.4604 50.5115 89.6936 51.0643C85.9537 53.7607 82.3567 56.8663 79.722 60.6499C72.6081 70.866 92.5928 80.8272 96.3136 70.38C97.9409 65.8109 97.9649 60.8211 98.7906 56.0417" fill="#48823A"/>
<path fill-rule="evenodd" clip-rule="evenodd" d="M57.2339 54.7338C42.697 48.9424 48.0937 63.9931 52.5757 64.5036C62.7608 65.6638 61.8957 57.2533 55.4371 54.5184" fill="#48823A"/>
<path fill-rule="evenodd" clip-rule="evenodd" d="M127.416 9.79579C127.373 27.1177 129.554 36.4042 147.412 41.909C150.119 42.7432 154.245 45.118 155.811 42.7947C161.226 34.76 152.044 18.2487 145.057 14.002C139.352 10.5348 136.893 11.2455 130.213 10.7166" fill="#3F7034"/>
<path fill-rule="evenodd" clip-rule="evenodd" d="M194.026 8.47368C194.072 27.3019 191.702 37.3959 172.291 43.3793C169.349 44.2861 164.864 46.8673 163.162 44.342C161.049 41.2067 160.981 36.8838 162.113 32.4165C164.135 24.4405 169.983 16.0044 174.851 13.0456C181.052 9.27692 183.725 10.0495 190.986 9.47452L194.026 8.47368Z" fill="#3F7034"/>
<path fill-rule="evenodd" clip-rule="evenodd" d="M650.917 24.4364C650.964 43.2646 648.593 53.3586 629.182 59.342C626.241 60.2488 621.755 62.8301 620.053 60.3048C617.94 57.1694 617.872 52.8465 619.004 48.3793C621.026 40.4033 626.874 31.9671 631.743 29.0083C637.943 25.2396 640.616 26.0122 647.877 25.4372L650.917 24.4364Z" fill="#3F7034"/>
<path fill-rule="evenodd" clip-rule="evenodd" d="M152.206 51.6446C127.776 40.5831 141.89 62.2705 143.617 62.1021C147.085 61.7638 156.979 58.1757 151.943 53.1397" fill="#3F7034"/>
<path fill-rule="evenodd" clip-rule="evenodd" d="M165.394 50.5C144.585 52.9602 169.833 66.8916 163.352 51.7872Z" fill="#3F7034"/>
<path fill-rule="evenodd" clip-rule="evenodd" d="M252.954 54.5573C237.485 53.9456 244.641 67.3728 255.047 70.6905C268.626 75.0199 273.926 57.0831 254.23 54.5L252.954 54.5573Z" fill="#48823A"/>
<path fill-rule="evenodd" clip-rule="evenodd" d="M219.306 11.1941C237.505 16.0225 246.641 20.9248 247.397 41.2228C247.511 44.299 248.844 49.2995 245.964 50.29C236.005 53.7155 221.252 39.4295 218.759 30.8987C216.724 23.9338 218.162 21.5525 219.486 14.3898" fill="#48823A"/>
<path fill-rule="evenodd" clip-rule="evenodd" d="M268.592 5.5C277.289 20.48 280.044 29.6128 267.331 43.309C265.404 45.3846 263.018 49.5044 260.5 48.2754C251.793 44.0249 251.49 25.1344 255.417 17.963C258.624 12.108 261.109 11.4942 266.63 7.69595" fill="#48823A"/>
<path fill-rule="evenodd" clip-rule="evenodd" d="M446.505 60.2025C461.974 59.5907 454.818 73.018 444.412 76.3357C430.833 80.6651 425.533 62.7282 445.229 60.1451L446.505 60.2025Z" fill="#3F7034"/>
<path fill-rule="evenodd" clip-rule="evenodd" d="M214.838 48.4396C224.715 60.3613 209.7 62.8249 200.747 56.5698C189.064 48.4074 200.1 33.3069 214.109 47.3909L214.838 48.4396Z" fill="#3F7034"/>
<path fill-rule="evenodd" clip-rule="evenodd" d="M480.153 17.8392C461.954 22.6676 452.818 27.57 452.062 47.8679C451.948 50.9441 450.615 55.9446 453.495 56.9351C463.454 60.3606 478.207 46.0747 480.7 37.5439C482.735 30.579 481.297 28.1976 479.973 21.035" fill="#3F7034"/>
<path fill-rule="evenodd" clip-rule="evenodd" d="M430.867 12.1451C422.17 27.1251 419.415 36.2579 432.128 49.9541C434.055 52.0298 436.441 56.1496 438.959 54.9205C447.666 50.6701 447.969 31.7796 444.042 24.6082C440.835 18.7531 438.35 18.1394 432.829 14.3411" fill="#3F7034"/>
<path fill-rule="evenodd" clip-rule="evenodd" d="M745.461 54.2025C729.991 53.5907 737.148 67.018 747.554 70.3357C761.132 74.6651 766.433 56.7282 746.736 54.1451L745.461 54.2025Z" fill="#3F7034"/>
<path fill-rule="evenodd" clip-rule="evenodd" d="M507.796 56.899C497.782 56.4999 502.415 65.2594 509.151 67.4238C517.941 70.2482 521.372 58.5467 508.622 56.8616L507.796 56.899Z" fill="#3F7034"/>
<path fill-rule="evenodd" clip-rule="evenodd" d="M711.813 11.8392C730.011 16.6676 739.148 21.57 739.903 41.8679C740.018 44.9441 741.35 49.9446 738.47 50.9351C728.511 54.3606 713.759 40.0747 711.266 31.5439C709.23 24.579 710.668 22.1976 711.992 15.035" fill="#3F7034"/>
<path fill-rule="evenodd" clip-rule="evenodd" d="M761.098 6.14514C769.796 21.1251 772.55 30.2579 759.837 43.9541C757.911 46.0298 755.525 50.1496 753.007 48.9205C744.299 44.6701 743.996 25.7796 747.924 18.6082C751.131 12.7531 753.615 12.1394 759.136 8.34109" fill="#3F7034"/>
<path fill-rule="evenodd" clip-rule="evenodd" d="M530.642 59.3565C524.012 66.5071 536.577 67.8098 539.241 62.5361C545.173 50.7921 534.523 51.637 528.093 60.3725" fill="#48823A"/>
<path fill-rule="evenodd" clip-rule="evenodd" d="M406.921 50.3478C397.958 46.5079 400.956 58.7798 406.818 59.5153C419.873 61.153 415.496 51.4073 405.107 48.2885" fill="#48823A"/>
<path fill-rule="evenodd" clip-rule="evenodd" d="M513.047 16.8624C529.031 17.0693 537.109 19.4075 538.205 37.5358C538.371 40.2832 539.641 44.4881 537.149 46.0373C528.533 51.3948 515.353 41.8759 512.994 34.7526C511.068 28.9369 512.272 26.4622 513.273 19.7027" fill="#48823A"/>
<path fill-rule="evenodd" clip-rule="evenodd" d="M547.147 49.6648C540.34 33.7365 538.719 24.3361 553.006 12.2913C555.172 10.4659 558.042 6.66765 560.391 8.19438C568.516 13.4743 566.515 32.261 561.742 38.9002C557.846 44.3208 555.305 44.6272 549.362 47.7244" fill="#48823A"/>
<path fill-rule="evenodd" clip-rule="evenodd" d="M574.278 50.3458C561.228 45.3602 566.73 29.0123 574.135 21.2622C574.28 21.1102 585.026 12.9205 586.284 14.505C588.165 16.8764 585.663 20.5477 584.941 23.4913C583.518 29.2919 588.128 37.7958 585.981 43.2309C585.612 44.1657 585.274 46.8753 581.431 48.9046C579.909 49.7083 574.278 50.3458 574.278 50.3458Z" fill="#48823A"/>
<path fill-rule="evenodd" clip-rule="evenodd" d="M546.143 61.4072C544.702 64.44 553.057 65.9582 556.735 67.8385C558.283 68.6299 560.052 69.8635 561.72 69.3715C562.46 69.1531 568.149 64.7557 569.196 60.4246C570.273 55.9661 566.672 51.5647 564.769 50.9261C559.308 49.0926 547.584 58.3744 546.143 61.4072Z" fill="#48823A"/>
<path fill-rule="evenodd" clip-rule="evenodd" d="M699.878 55.6769C691.132 45.6655 687.719 39.1887 695.291 27.0092C696.438 25.1634 697.633 21.7103 699.71 22.2675C706.892 24.1945 709.886 38.3811 707.977 44.3588C706.419 49.2392 704.637 50.0654 701.034 53.7353" fill="#3F7034"/>
<path fill-rule="evenodd" clip-rule="evenodd" d="M605.878 63.6769C597.132 53.6655 593.719 47.1887 601.291 35.0092C602.438 33.1634 603.633 29.7103 605.71 30.2675C612.892 32.1945 615.886 46.3811 613.977 52.3588C612.419 57.2392 610.637 58.0654 607.034 61.7353" fill="#3F7034"/>
<path fill-rule="evenodd" clip-rule="evenodd" d="M654.647 21.0842C655.571 39.5917 658.421 49.3903 677.807 54.2712C680.745 55.0109 685.286 57.3168 686.829 54.7472C692.164 45.8606 681.43 28.7356 673.728 24.59C667.439 21.2054 664.853 22.1024 657.686 21.9113" fill="#48823A"/>
<path fill-rule="evenodd" clip-rule="evenodd" d="M692.839 62.4873C691.432 62.6651 689.975 62.6051 688.619 63.0206C688.038 63.1988 687.299 63.6013 687.233 64.2057C686.912 67.1533 686.849 70.2086 687.523 73.0959C689.344 80.8917 702.704 75.6273 699.313 69.3537C697.829 66.6098 695.455 64.4512 693.526 62" fill="#3F7034"/>
<path fill-rule="evenodd" clip-rule="evenodd" d="M486.839 55.4873C485.432 55.6651 483.975 55.6051 482.619 56.0206C482.038 56.1988 481.299 56.6013 481.233 57.2057C480.912 60.1533 480.849 63.2086 481.523 66.0959C483.344 73.8917 496.704 68.6273 493.313 62.3537C491.829 59.6098 489.455 57.4512 487.526 55" fill="#3F7034"/>
</svg>
