<svg width="442" height="86" viewBox="0 0 442 86" fill="none" xmlns="http://www.w3.org/2000/svg">
<path d="M31 19C48.1208 19 62 32.8792 62 50V78C62 82.4183 58.4183 86 54 86C49.5817 86 46 82.4183 46 78V50C46 41.7157 39.2843 35 31 35C22.7157 35 16 41.7157 16 50V78C16 82.4183 12.4183 86 8 86C3.58172 86 0 82.4183 0 78V50C0 32.8792 13.8792 19 31 19Z" fill="#346C47"/>
<path fill-rule="evenodd" clip-rule="evenodd" d="M102 19C107.98 19 113.564 20.6954 118.3 23.6289C119.728 21.4441 122.195 20 125 20C129.418 20 133 23.5817 133 28V76C133 80.4183 129.418 84 125 84C122.499 84 120.268 82.8517 118.801 81.0547C113.96 84.1827 108.192 86 102 86C84.8792 86 71 72.1208 71 55V50C71 32.8792 84.8792 19 102 19ZM102 35C93.7157 35 87 41.7157 87 50V55C87 63.2843 93.7157 70 102 70C110.284 70 117 63.2843 117 55V50C117 41.7157 110.284 35 102 35Z" fill="#346C47"/>
<path d="M196 19C200.418 19 204 22.5817 204 27V55C204 72.1208 190.121 86 173 86C155.879 86 142 72.1208 142 55V27C142 22.5817 145.582 19 150 19C154.418 19 158 22.5817 158 27V55C158 63.2843 164.716 70 173 70C181.284 70 188 63.2843 188 55V27C188 22.5817 191.582 19 196 19Z" fill="#346C47"/>
<path fill-rule="evenodd" clip-rule="evenodd" d="M221 0C225.418 -4.14133e-09 229 3.58172 229 8V22.8662C233.445 20.4036 238.558 19 244 19C261.121 19 275 32.8792 275 50V55C275 72.1208 261.121 86 244 86C227.562 86 214.114 73.2052 213.067 57.0312C213.024 56.6936 213 56.3495 213 56V8C213 3.58172 216.582 1.93129e-07 221 0ZM244 35C235.716 35 229 41.7157 229 50V55C229 63.2843 235.716 70 244 70C252.284 70 259 63.2843 259 55V50C259 41.7157 252.284 35 244 35Z" fill="#346C47"/>
<path fill-rule="evenodd" clip-rule="evenodd" d="M340 19C357.121 19 371 32.8792 371 50V55C371 72.1208 357.121 86 340 86C322.879 86 309 72.1208 309 55V50C309 32.8792 322.879 19 340 19ZM340 35C331.716 35 325 41.7157 325 50V55C325 63.2843 331.716 70 340 70C348.284 70 355 63.2843 355 55V50C355 41.7157 348.284 35 340 35Z" fill="#346C47"/>
<path d="M411 19C428.121 19 442 32.8792 442 50V78C442 82.4183 438.418 86 434 86C429.582 86 426 82.4183 426 78V50C426 41.7157 419.284 35 411 35C402.716 35 396 41.7157 396 50V78C396 82.4183 392.418 86 388 86C383.582 86 380 82.4183 380 78V50C380 32.8792 393.879 19 411 19Z" fill="#346C47"/>
<path d="M292 19C296.418 19 300 22.5817 300 27V75C300 79.4183 296.418 83 292 83C287.582 83 284 79.4183 284 75V27C284 22.5817 287.582 19 292 19Z" fill="#346C47"/>
</svg>
